Coordinates
version=1
nRows=11
nColumns=26
inDegrees=yes

Units are S.I. units (second, meters, Newtons, ...)
Angles are in degrees.

endheader
time	pelvis_tilt	pelvis_list	pelvis_rotation	pelvis_tx	pelvis_ty	pelvis_tz	hip_flexion_r	hip_adduction_r	hip_rotation_r	knee_angle_r	knee_angle_r_beta	ankle_angle_r	subtalar_angle_r	mtp_angle_r	hip_flexion_l	hip_adduction_l	hip_rotation_l	knee_angle_l	knee_angle_l_beta	ankle_angle_l	subtalar_angle_l	mtp_angle_l	lumbar_extension	lumbar_bending	lumbar_rotation
      0.82500000	      7.77686624	     -2.53821722	      5.01100262	      0.95121419	      1.01254099	      0.19992165	     -3.03765274	      6.99496875	     -6.88788454	      8.74031177	      8.74031177	      1.48266746	      0.00000000	      0.00000000	     11.91454329	    -10.59773118	     -4.82573670	     64.72675923	     64.72675923	      5.43339107	      0.00000000	      0.00000000	    -18.49222153	      3.91409356	      4.39071644
      0.83333333	      7.81689340	     -2.37748827	      4.69140786	      0.95923173	      1.01358310	      0.20089272	     -3.99900366	      6.95614863	     -6.31044957	      8.03304740	      8.03304740	      1.47935542	      0.00000000	      0.00000000	     12.57343544	    -10.35580345	     -5.22608579	     63.82388350	     63.82388350	      5.62173514	      0.00000000	      0.00000000	    -18.58255902	      3.64138008	      4.69250356
      0.84166667	      7.78040968	     -2.16465997	      4.36680821	      0.96697573	      1.01451373	      0.20163079	     -4.81025100	      6.81088132	     -5.72098068	      7.44815399	      7.44815399	      1.52947810	      0.00000000	      0.00000000	     13.25979620	    -10.03943108	     -5.70335278	     62.69366227	     62.69366227	      5.64275903	      0.00000000	      0.00000000	    -18.62681851	      3.33265676	      4.96227862
      0.85000000	      7.82466523	     -1.93003512	      4.04298886	      0.97474863	      1.01546356	      0.20238706	     -5.72842704	      6.64251002	     -5.16020376	      6.81821939	      6.81821939	      1.57379969	      0.00000000	      0.00000000	     13.75001758	     -9.71698411	     -6.32618520	     61.19446881	     61.19446881	      5.54657128	      0.00000000	      0.00000000	    -18.76243446	      3.00070782	      5.19020449
      0.85833333	      7.76525251	     -1.73498815	      3.79772572	      0.98228208	      1.01606620	      0.20291299	     -6.44821572	      6.49531667	     -4.75570584	      6.31816585	      6.31816585	      1.70348990	      0.00000000	      0.00000000	     14.43726643	     -9.43085369	     -6.70066531	     59.92989491	     59.92989491	      5.76426363	      0.00000000	      0.00000000	    -18.79922726	      2.74609605	      5.33392370
      0.86666667	      7.71539181	     -1.61881973	      3.51224412	      0.98980647	      1.01655365	      0.20342696	     -7.16500524	      6.39792417	     -4.28487551	      5.80193347	      5.80193347	      1.68516263	      0.00000000	      0.00000000	     15.06018865	     -9.19675544	     -7.07048595	     58.47767618	     58.47767618	      5.76308682	      0.00000000	      0.00000000	    -18.84302650	      2.57698252	      5.52923357
      0.87500000	      7.68894526	     -1.51888286	      3.25292110	      0.99729448	      1.01681491	      0.20386802	     -7.88129708	      6.31056266	     -3.92023953	      5.35020419	      5.35020419	      1.84220162	      0.00000000	      0.00000000	     15.59733522	     -8.97521224	     -7.47851446	     56.80786387	     56.80786387	      5.57832382	      0.00000000	      0.00000000	    -18.91917225	      2.43491553	      5.68868427
      0.88333333	      7.67847022	     -1.55728081	      3.08239834	      1.00480855	      1.01694442	      0.20428120	     -8.51175769	      6.39613263	     -3.61033442	      5.08689650	      5.08689650	      1.94223140	      0.00000000	      0.00000000	     16.13651948	     -8.89278038	     -7.81503012	     55.06133444	     55.06133444	      5.34953395	      0.00000000	      0.00000000	    -18.99807133	      2.47413548	      5.78590330
      0.89166667	      7.70871802	     -1.39707281	      2.81746483	      1.01231006	      1.01708199	      0.20442365	     -9.26391093	      6.21717852	     -3.28721704	      4.67649342	      4.67649342	      2.09349546	      0.00000000	      0.00000000	     16.47392007	     -8.50983594	     -8.10590590	     53.11041944	     53.11041944	      5.04904631	      0.00000000	      0.00000000	    -19.13681091	      2.31692437	      5.89923009
      0.90000000	      7.50744131	     -1.39914845	      2.40369172	      1.01926172	      1.01674212	      0.20476970	     -9.74960716	      6.18260711	     -2.69648476	      4.18197419	      4.18197419	      2.16276342	      0.00000000	      0.00000000	     17.05489413	     -8.34061557	     -8.56358629	     51.04969132	     51.04969132	      4.76822214	      0.00000000	      0.00000000	    -19.08699249	      2.29642408	      6.17306158
      0.90833333	      7.25738060	     -1.50453591	      2.02957129	      1.02617695	      1.01615155	      0.20504641	    -10.16034998	      6.25612537	     -2.12420621	      3.70926407	      3.70926407	      2.24833144	      0.00000000	      0.00000000	     17.68866801	     -8.28779478	     -8.98218900	     48.93649162	     48.93649162	      4.40064048	      0.00000000	      0.00000000	    -18.98918007	      2.40684070	      6.44497826
